<?xml version="1.0" encoding="UTF-8"?>
<svg id="Capa_2" data-name="Capa 2" xmlns="http://www.w3.org/2000/svg" xmlns:xlink="http://www.w3.org/1999/xlink" viewBox="0 0 731.1 162.38">
  <defs>
    <style>
      .cls-1 {
        fill: #b6bbf3;
      }

      .cls-2 {
        fill: #e9eafd;
      }

      .cls-3 {
        fill: #4a7df2;
      }

      .cls-4 {
        fill: #696797;
      }

      .cls-4, .cls-5 {
        stroke: #0062ee;
        stroke-miterlimit: 10;
        stroke-width: .25px;
      }

      .cls-6 {
        fill: #fff;
      }

      .cls-7 {
        fill: #f08f6d;
      }

      .cls-5, .cls-8 {
        fill: #2270ef;
      }

      .cls-9 {
        fill: url(#Degradado_sin_nombre_13);
        stroke: #7887c2;
        stroke-linecap: round;
        stroke-linejoin: round;
        stroke-width: 3px;
      }
    </style>
    <linearGradient id="Degradado_sin_nombre_13" data-name="Degradado sin nombre 13" x1="85.1" y1="130.18" x2="65.08" y2="-23.44" gradientTransform="translate(1.83 6.79)" gradientUnits="userSpaceOnUse">
      <stop offset="0" stop-color="#d9c9f8"/>
      <stop offset=".22" stop-color="#cbd3fa"/>
      <stop offset=".57" stop-color="#bee1fa"/>
      <stop offset=".67" stop-color="#bae7fa"/>
    </linearGradient>
  </defs>
  <g id="Capa_1-2" data-name="Capa 1">
    <g>
      <path class="cls-9" d="M132.01,70.97c-1.26,1.88-3.96,5.34-8.64,7.85-2.62,1.41-5.67,3.05-9.56,2.77-5.56-.4-7.95-4.38-11.94-2.94-.49.18-2.07.77-2.66,2.25-.6,1.51.05,3.45,1.58,5.05-.55.01-7.22.26-10.09,5.28-2.13,3.72-1.22,8.4.64,11.28,5.82,8.97,25.49,7.35,37.81,2.32,6.7-2.73,11.63-6.64,13.99-8.54,5.22-4.19,8.65-6.95,10.99-11.85,3.16-6.65,3.38-15.29-.36-22.82-4.77-9.61-13.71-12.82-15.5-13.43.27-.93,3.14-11.28-3.81-19.91-5.02-6.24-13.23-9.17-21.27-7.62-1.39-2.94-4.29-8.07-9.88-12.34-12.05-9.21-26.08-6.4-27.85-6.02-16.74,3.64-23.71,18.49-24.45,20.13-1.16-.24-14.71-2.78-24.96,7.12-7.21,6.97-10.03,17.43-7.4,27.27C6.93,61.62-.03,73.95,1.95,86.45c1.99,12.54,12.48,22.13,25.17,23,1.38,4.97,4.17,12.27,10.18,18.99,18.58,20.75,49.89,15.75,54.9,14.95,4.42-.71,35.4-5.65,46.89-30.57,2.91-6.31,3.8-12.24,4.05-16.51"/>
      <g>
        <path class="cls-1" d="M154.7,63.74c-.41,3.87-1.43,8.28-3.63,12.74-11.17,22.59-45.92,32.47-57.04,22.1-2.02-1.88-3.04-4.23-3.6-6.24-1.64,3.66-1.41,6.1-.84,7.69.75,2.08,2.34,3.42,2.76,6.48.17,1.2.09,2.21,0,2.88-1.48,1.37-3.81,3.25-7.03,4.73-2.34,1.08-7.04,2.81-17.48,1.94-8.63-.72-17.8-1.48-27.41-7.77-5.93-3.88-9.9-8.47-12.39-11.97-1.43.07-11.33.35-18.83-7.62-4.57-4.86-6.03-10.41-6.44-14.3-1.14,3.82-1.47,7.92-.81,12.05,1.99,12.54,12.48,22.13,25.17,23,1.38,4.97,4.17,12.27,10.18,18.99,18.58,20.75,49.89,15.75,54.9,14.95,4.42-.71,35.4-5.65,46.89-30.57,2.91-6.31,3.8-12.24,4.05-16.51,5.22-4.19,8.65-6.95,10.99-11.85,2.87-6.03,3.3-13.71.56-20.71ZM131.72,116.28c-1.63,1.59-3.76,3.39-7.34,5.61,0,0-12.09,7.52-26.33,10.14-8.95,1.65-23.29.33-40.12-5.33,16.4,2.43,28.95.23,34.41-7.22,1.33-1.81,2.39-4.15,2.88-7.2,2.81,1.44,5.49,2.34,7.93,2.88,15.19,3.4,29.21-4.92,36.89-10.81-1.64,3.6-4.22,7.93-8.33,11.93Z"/>
        <path class="cls-5" d="M78.61,145.97c-13.1,0-30.34-3.04-42.42-16.53-4.66-5.2-8.1-11.45-10.22-18.59-12.83-1.36-23.47-11.36-25.5-24.17-2.01-12.66,4.86-25.37,16.43-30.72-2.22-10.01.83-20.43,8.11-27.47,9.35-9.04,21.22-8.27,25.13-7.71,2.18-4.35,9.58-16.57,24.99-19.92,2.71-.59,16.86-3.05,29.08,6.29,4.05,3.1,7.43,7.18,9.82,11.87,8.26-1.18,16.43,1.95,21.58,8.34,6.14,7.62,5.14,16.46,4.42,19.9,3.88,1.54,10.92,5.35,15.07,13.71,3.79,7.63,3.93,16.65.37,24.13-2.4,5.05-5.8,7.88-10.89,11.97-.42,5.82-1.81,11.33-4.14,16.38-4.98,10.8-14,19.25-26.82,25.1-4.52,2.06-11.87,4.84-21.18,6.33-3.36.54-8.21,1.1-13.84,1.1ZM45.67,23.47c-4.88,0-12.35,1.17-18.56,7.18-6.81,6.58-9.49,16.47-6.99,25.8.2.73-.18,1.49-.88,1.78-11.01,4.48-17.66,16.25-15.79,27.98,1.87,11.79,11.87,20.93,23.79,21.74.63.04,1.17.48,1.34,1.09,1.97,7.1,5.29,13.29,9.86,18.39,16.28,18.18,42.87,16.18,53.55,14.47,31.24-4.99,42.41-22.45,45.76-29.72,1.81-3.92,3.01-8.14,3.6-12.58-2.7,2-6.69,4.61-11.6,6.62-12.51,5.11-33.25,6.94-39.63-2.89-2.13-3.27-3.16-8.51-.69-12.84,2.16-3.79,6.1-5.2,8.74-5.72-.72-1.5-.86-3.07-.33-4.42.38-.97,1.31-2.31,3.54-3.11,2.78-1,4.96.06,7.06,1.1,1.61.79,3.26,1.6,5.49,1.76,3.44.23,6.26-1.26,8.74-2.6,3.23-1.73,6.03-4.28,8.1-7.37.46-.69,1.4-.87,2.08-.41.69.46.87,1.39.41,2.08-2.35,3.49-5.52,6.38-9.17,8.34-2.7,1.45-6.06,3.25-10.38,2.95-2.81-.2-4.91-1.23-6.59-2.06-2.06-1.01-3.21-1.51-4.73-.97-1.18.43-1.61.99-1.77,1.39-.36.92.13,2.28,1.27,3.47.41.43.53,1.06.3,1.61s-.76.91-1.35.93c-.26,0-6.33.18-8.82,4.53-1.84,3.21-.98,7.29.6,9.72,2.34,3.6,7.75,5.63,15.23,5.72,6.69.08,14.45-1.41,20.76-3.98,6.63-2.71,11.53-6.64,13.62-8.32,5.23-4.2,8.38-6.73,10.57-11.33,3.12-6.56,2.98-14.8-.35-21.51-4.28-8.63-12.29-11.88-14.64-12.67-.76-.26-1.19-1.07-.96-1.85.31-1.06,2.88-10.57-3.54-18.54-4.69-5.82-12.28-8.54-19.82-7.08-.67.13-1.35-.21-1.64-.83-2.2-4.68-5.46-8.75-9.43-11.79-11.17-8.54-24.14-6.28-26.62-5.74-15.88,3.45-22.67,17.67-23.4,19.27-.29.64-.98,1-1.67.85-.5-.1-2.39-.45-5.05-.45Z"/>
        <path class="cls-6" d="M72.51,53.03c-.22-6.17-5.4-10.99-11.58-10.77s-10.99,5.41-10.77,11.58l.16,4.35c.05,1.51.41,2.95,1,4.24,3.77.13,7.67.81,11.1,2.42,1.72.67,3.37,1.5,4.92,2.45,3.31-2.04,5.47-5.75,5.32-9.92l-.16-4.35Z"/>
        <path class="cls-6" d="M114.54,58.25s.05,0,.08-.01c.46-1.24.71-2.58.69-3.99l-.05-4.3c-.07-6.11-5.09-11-11.2-10.93h0c-6.11.07-11,5.09-10.93,11.2l.05,4.3c.06,5.04,3.48,9.25,8.11,10.53,3.67-3.52,8.19-6.24,13.25-6.8Z"/>
        <g>
          <path class="cls-8" d="M120.05,57.58c-.07-.73-.73-1.27-1.46-1.19-3.22.32-6.33,1.17-9.26,2.53-3.26,1.51-6.19,3.58-8.7,6.17-.51.53-.5,1.37.03,1.89.26.25.59.38.93.38s.7-.14.96-.41c2.28-2.35,4.94-4.24,7.9-5.61,2.66-1.23,5.49-2,8.41-2.29.73-.07,1.27-.73,1.19-1.46Z"/>
          <path class="cls-8" d="M59.16,63.01c-3.04-1.05-6.22-1.58-9.45-1.58h-.02c-.74,0-1.33.6-1.33,1.34,0,.74.6,1.33,1.33,1.33,0,0,.01,0,.02,0,2.93,0,5.82.48,8.58,1.43,3.09,1.06,5.92,2.67,8.42,4.78.25.21.56.31.86.31.38,0,.76-.16,1.02-.47.47-.56.4-1.41-.16-1.88-2.76-2.32-5.88-4.09-9.28-5.26Z"/>
        </g>
        <path class="cls-4" d="M102.34,44.46c-.38,0-.76.05-.76.05-1.25.19-2.12.91-2.56,1.35.17.03,1.33.24,1.93,1.28.49.86.29,1.73.21,2.03-.41,1.72-2.19,2.67-3.21,2.68-.34,0-.7-.07-.7-.07-.44-.09-.86-.26-1.23-.49v2.59c0,3.49,2.83,6.32,6.32,6.32s6.32-2.83,6.32-6.32v-3.1c0-3.49-2.83-6.32-6.32-6.32Z"/>
        <path class="cls-4" d="M63.85,47.5c-.38,0-.76.05-.76.05-1.25.19-2.12.91-2.56,1.35.17.03,1.33.24,1.93,1.28.49.86.29,1.73.21,2.03-.41,1.72-2.19,2.67-3.21,2.68-.34,0-.7-.07-.7-.07-.44-.09-.86-.26-1.23-.49v2.59c0,3.49,2.83,6.32,6.32,6.32s6.32-2.83,6.32-6.32v-3.1c0-3.49-2.83-6.32-6.32-6.32Z"/>
        <path class="cls-8" d="M83.21,73.78h-.06c-3.96-.02-6.87-1.82-8.25-2.89-.56-.43-.66-1.24-.23-1.8.43-.56,1.24-.66,1.8-.23,1.12.87,3.49,2.34,6.69,2.36h.05c4.79,0,7.89-3.33,8.46-4,.46-.54,1.27-.6,1.8-.14.54.46.6,1.27.14,1.8-.99,1.15-4.65,4.89-10.4,4.89Z"/>
        <path class="cls-5" d="M92.68,104.96c-1.4-3.57-5.3-6.15-10.3-6.85.82-1.32,1.1-2.78.77-4.12-.13-.45-.66-2-2.13-2.88-3.02-1.81-7.16.71-9.63,2.22-.36.22-.67.4-.91.54-5.13,2.84-14.44-.28-27.66-9.25-.29-.2-.64-.27-.98-.21-.34.07-.64.26-.83.55-.2.29-.27.63-.21.98.07.34.26.64.55.83,14.3,9.71,24.23,12.78,30.38,9.38.25-.14.54-.32.88-.52l.13-.08c1.71-1.04,5.27-3.2,6.94-2.2.67.4.93,1.25.95,1.3h0c.28,1.12-.43,2.5-1.82,3.53-.45.34-.64.92-.46,1.46.18.53.68.89,1.24.89,5.21.01,9.4,2.13,10.68,5.39,1.45,3.71-1.39,7.94-1.52,8.12-6.42,9.46-26.63,6.77-36.43,4.03-6.33-1.77-12.34-4.62-17.88-8.47-.28-.2-.63-.28-.97-.22-.34.06-.64.25-.85.54-.4.58-.26,1.4.33,1.81,5.76,4.02,12.04,6.99,18.66,8.84,6.03,1.69,12.93,2.66,18.92,2.66.66,0,1.32-.01,1.95-.04,8.99-.34,15.19-2.93,18.41-7.7.63-.92,3.66-5.76,1.79-10.53Z"/>
        <g>
          <path class="cls-6" d="M105.08,21.84c-1.4,0-2.53,1.13-2.53,2.53s1.13,2.53,2.53,2.53,2.53-1.13,2.53-2.53-1.13-2.53-2.53-2.53Z"/>
          <path class="cls-6" d="M94.52,11.9c-2.68-1.19-5.54-1.87-8.48-2-1.69-.09-3.13,1.23-3.21,2.93s1.23,3.13,2.93,3.21c2.18.1,4.29.6,6.27,1.48,1.73.77,3.32,1.81,4.72,3.1.59.54,1.34.81,2.08.81.83,0,1.66-.33,2.26-.99,1.15-1.25,1.07-3.19-.18-4.34-1.89-1.74-4.04-3.15-6.39-4.19Z"/>
        </g>
      </g>
      <ellipse class="cls-3" cx="81.45" cy="159.29" rx="36.99" ry="3.08"/>
      <g>
        <path class="cls-2" d="M65.67,98.84c-3.36-.03-6.7-.5-9.92-1.4-3.82-1.06-7.44-2.71-10.76-4.89-.62-.4-1.44-.23-1.85.38-.4.62-.23,1.44.38,1.85,3.55,2.34,7.43,4.1,11.51,5.23,3.45.96,7.02,1.46,10.61,1.5h.01c.73,0,1.33-.59,1.33-1.32,0-.74-.59-1.34-1.32-1.35Z"/>
        <path class="cls-2" d="M131.44,77.46c-.57-.47-1.41-.39-1.88.17-1.11,1.34-2.39,2.53-3.79,3.52-2.6,1.84-5.7,3.06-8.96,3.53-.73.1-1.24.78-1.13,1.51.09.67.67,1.15,1.32,1.15.06,0,.13,0,.19-.01,3.68-.52,7.19-1.9,10.13-3.99,1.59-1.13,3.04-2.48,4.3-4,.47-.57.39-1.41-.17-1.88Z"/>
      </g>
    </g>
    <g>
      <path class="cls-3" d="M244.68,107.98c0,1.45-.45,2.63-1.35,3.55-.9.92-1.93,1.38-3.09,1.38-.95,0-1.81-.31-2.58-.92-.77-.61-1.36-1.45-1.79-2.51l-4.13-10.11h-23.65l-4.13,10.19c-.37,1.06-.94,1.88-1.71,2.47-.77.58-1.6.88-2.5.88-1.38,0-2.42-.39-3.13-1.17-.71-.78-1.07-1.84-1.07-3.17,0-.5.08-1.03.24-1.59l19.76-49.96c.42-1.11,1.06-1.98,1.9-2.59.85-.61,1.8-.86,2.86-.75.95,0,1.84.29,2.66.88.82.58,1.42,1.41,1.79,2.46l19.52,48.96c.26.72.4,1.39.4,2ZM211.98,89.77h15.87l-8.02-19.55-7.86,19.55Z"/>
      <path class="cls-3" d="M285.71,69.93c2.96,1.98,5.3,4.72,7.02,8.23,1.72,3.51,2.58,7.49,2.58,11.95s-.85,8.45-2.54,11.99c-1.69,3.54-4.01,6.29-6.94,8.27-2.94,1.98-6.18,2.97-9.72,2.97-2.54,0-4.93-.54-7.18-1.63s-4.11-2.41-5.6-3.97v.5c0,1.45-.45,2.66-1.35,3.63-.9.97-2.04,1.46-3.41,1.46s-2.51-.47-3.41-1.42c-.9-.95-1.35-2.17-1.35-3.68v-52.46c0-1.45.45-2.66,1.35-3.63.9-.97,2.04-1.46,3.41-1.46s2.51.49,3.41,1.46c.9.98,1.35,2.19,1.35,3.63v17.46c1.27-1.67,3.04-3.13,5.32-4.39,2.27-1.25,4.65-1.88,7.14-1.88,3.65,0,6.96.99,9.92,2.97ZM282.93,100.13c2.17-2.67,3.25-6.01,3.25-10.02s-1.07-7.34-3.21-9.98c-2.14-2.64-4.93-3.97-8.37-3.97s-6.24,1.32-8.41,3.97c-2.17,2.65-3.25,5.97-3.25,9.98s1.08,7.35,3.25,10.02c2.17,2.67,4.97,4.01,8.41,4.01s6.16-1.34,8.33-4.01Z"/>
      <path class="cls-3" d="M332.49,68.38c1.08.95,1.63,2.06,1.63,3.34,0,1.73-.42,3.02-1.27,3.88-.85.86-1.85,1.29-3.02,1.29-.79,0-1.69-.19-2.7-.58-.16-.05-.51-.17-1.07-.33-.56-.17-1.15-.25-1.79-.25-1.38,0-2.7.45-3.97,1.34-1.27.89-2.31,2.24-3.13,4.05-.82,1.81-1.23,3.97-1.23,6.47v19.8c0,1.45-.45,2.66-1.35,3.63-.9.98-2.04,1.46-3.41,1.46s-2.51-.49-3.41-1.46c-.9-.97-1.35-2.19-1.35-3.63v-34.5c0-1.45.45-2.66,1.35-3.63.9-.97,2.04-1.46,3.41-1.46s2.51.49,3.41,1.46c.9.98,1.35,2.19,1.35,3.63v1.09c1.22-2.28,2.96-4.02,5.24-5.22,2.27-1.2,4.71-1.8,7.3-1.8,1.59,0,2.92.47,4.01,1.42Z"/>
      <path class="cls-3" d="M380.87,68.38c.9.95,1.35,2.17,1.35,3.68v35.34c0,1.45-.45,2.66-1.35,3.63-.9.98-2.04,1.46-3.41,1.46s-2.5-.47-3.37-1.42c-.87-.95-1.34-2.14-1.39-3.59-1.32,1.62-3.11,3-5.36,4.14s-4.62,1.71-7.1,1.71c-3.65,0-6.96-.99-9.92-2.97-2.96-1.98-5.31-4.72-7.02-8.23-1.72-3.51-2.58-7.49-2.58-11.95s.85-8.45,2.54-11.99c1.69-3.54,4.01-6.29,6.94-8.27,2.94-1.98,6.18-2.97,9.72-2.97,2.54,0,4.92.49,7.14,1.46,2.22.98,4.1,2.21,5.64,3.72v-.08c0-1.45.45-2.66,1.35-3.63.9-.97,2.04-1.46,3.41-1.46s2.51.47,3.41,1.42ZM369.83,100.17c2.17-2.64,3.25-5.97,3.25-9.98s-1.08-7.35-3.25-10.02-4.97-4.01-8.41-4.01-6.16,1.34-8.33,4.01c-2.17,2.67-3.25,6.02-3.25,10.02s1.07,7.34,3.21,9.98c2.14,2.65,4.93,3.97,8.37,3.97s6.24-1.32,8.41-3.97Z"/>
      <path class="cls-3" d="M425.94,104.6c.85.86,1.27,1.96,1.27,3.3s-.42,2.37-1.27,3.26c-.85.89-1.9,1.34-3.17,1.34h-25.56c-1.22,0-2.24-.46-3.06-1.38-.82-.92-1.23-1.91-1.23-2.97,0-.95.11-1.74.32-2.38s.61-1.38,1.19-2.21l18.89-25.73h-15.4c-1.27,0-2.33-.45-3.18-1.34-.85-.89-1.27-2-1.27-3.34s.42-2.35,1.27-3.22c.85-.86,1.91-1.29,3.18-1.29h24.44c1.16,0,2.16.43,2.98,1.29.82.86,1.23,1.94,1.23,3.22,0,.84-.08,1.54-.24,2.13-.16.58-.53,1.27-1.11,2.05l-19.05,25.98h16.59c1.27,0,2.33.43,3.17,1.29Z"/>
      <path class="cls-3" d="M475.07,68.38c.9.95,1.35,2.17,1.35,3.68v35.34c0,1.45-.45,2.66-1.35,3.63-.9.98-2.04,1.46-3.41,1.46s-2.5-.47-3.37-1.42c-.87-.95-1.34-2.14-1.39-3.59-1.32,1.62-3.11,3-5.36,4.14s-4.62,1.71-7.1,1.71c-3.65,0-6.96-.99-9.92-2.97-2.96-1.98-5.31-4.72-7.02-8.23-1.72-3.51-2.58-7.49-2.58-11.95s.85-8.45,2.54-11.99c1.69-3.54,4.01-6.29,6.94-8.27,2.94-1.98,6.18-2.97,9.72-2.97,2.54,0,4.92.49,7.14,1.46,2.22.98,4.1,2.21,5.64,3.72v-.08c0-1.45.45-2.66,1.35-3.63.9-.97,2.04-1.46,3.41-1.46s2.51.47,3.41,1.42ZM464.04,100.17c2.17-2.64,3.25-5.97,3.25-9.98s-1.08-7.35-3.25-10.02-4.97-4.01-8.41-4.01-6.16,1.34-8.33,4.01c-2.17,2.67-3.25,6.02-3.25,10.02s1.07,7.34,3.21,9.98c2.14,2.65,4.93,3.97,8.37,3.97s6.24-1.32,8.41-3.97Z"/>
      <path class="cls-7" d="M542.33,55.39c.98.97,1.47,2.19,1.47,3.63v48.37c0,1.45-.45,2.66-1.35,3.63-.9.98-2.09,1.46-3.57,1.46s-2.69-.47-3.61-1.42c-.93-.95-1.39-2.17-1.39-3.68v-33.67l-13.1,21.05c-.53.67-1.14,1.21-1.83,1.63s-1.4.6-2.14.54c-.69.06-1.38-.12-2.06-.54-.69-.42-1.3-.96-1.83-1.63l-13.1-21.8v34.42c0,1.5-.42,2.73-1.27,3.68-.85.95-1.96,1.42-3.33,1.42s-2.41-.49-3.25-1.46c-.85-.97-1.27-2.19-1.27-3.63v-48.37c0-1.39.49-2.59,1.47-3.59s2.16-1.5,3.53-1.5c.79,0,1.59.21,2.38.63s1.4.96,1.82,1.63l17.3,27.99,17.78-27.99c.42-.67.99-1.21,1.71-1.63s1.44-.63,2.18-.63c1.32,0,2.47.49,3.45,1.46Z"/>
      <path class="cls-7" d="M594.67,92.36c-.95.83-2.06,1.25-3.33,1.25h-26.19c.64,3.29,2.09,5.86,4.37,7.73,2.28,1.87,4.84,2.8,7.7,2.8,2.17,0,3.86-.21,5.08-.63,1.22-.42,2.18-.86,2.9-1.34.71-.47,1.2-.79,1.47-.96.95-.5,1.85-.75,2.7-.75,1.11,0,2.06.42,2.86,1.25.79.84,1.19,1.81,1.19,2.92,0,1.5-.74,2.87-2.22,4.09-1.48,1.28-3.47,2.37-5.95,3.26-2.49.89-5,1.34-7.54,1.34-4.44,0-8.32-.97-11.63-2.92-3.31-1.95-5.86-4.64-7.66-8.06-1.8-3.42-2.7-7.28-2.7-11.57,0-4.79.95-9,2.86-12.61s4.42-6.39,7.54-8.31c3.12-1.92,6.45-2.88,10-2.88s6.79,1,9.88,3.01c3.1,2.01,5.57,4.71,7.42,8.1,1.85,3.4,2.78,7.07,2.78,11.03-.05,1.34-.56,2.42-1.51,3.26ZM565.23,85.26h20.79v-.58c-.21-2.34-1.3-4.34-3.25-6.02-1.96-1.67-4.18-2.51-6.67-2.51-6.14,0-9.76,3.04-10.87,9.11Z"/>
      <path class="cls-7" d="M641.18,72.01c2.06,3.37,3.1,8.03,3.1,13.99v21.39c0,1.45-.45,2.66-1.35,3.63-.9.98-2.04,1.46-3.41,1.46s-2.51-.49-3.41-1.46c-.9-.97-1.35-2.19-1.35-3.63v-21.39c0-3.06-.61-5.47-1.82-7.23-1.22-1.75-3.31-2.63-6.27-2.63s-5.48.93-7.22,2.8c-1.75,1.87-2.62,4.22-2.62,7.06v21.39c0,1.45-.45,2.66-1.35,3.63-.9.98-2.04,1.46-3.41,1.46s-2.51-.49-3.41-1.46c-.9-.97-1.35-2.19-1.35-3.63v-34.5c0-1.45.45-2.66,1.35-3.63.9-.97,2.04-1.46,3.41-1.46s2.51.49,3.41,1.46c.9.98,1.35,2.19,1.35,3.63v1.42c1.43-2.01,3.29-3.73,5.6-5.18,2.3-1.45,4.83-2.17,7.58-2.17,5.4,0,9.13,1.69,11.19,5.05Z"/>
      <path class="cls-7" d="M680.27,104.18c.61.75.91,1.74.91,2.97,0,1.5-.78,2.77-2.34,3.8-1.56,1.03-3.32,1.54-5.28,1.54-3.28,0-6.05-.74-8.29-2.21-2.25-1.48-3.37-4.61-3.37-9.4v-23.06h-3.65c-1.27,0-2.33-.45-3.17-1.34-.85-.89-1.27-2-1.27-3.34s.42-2.35,1.27-3.22c.85-.86,1.9-1.29,3.17-1.29h3.65v-5.35c0-1.45.46-2.66,1.39-3.63.93-.97,2.08-1.46,3.45-1.46s2.43.49,3.33,1.46c.9.98,1.35,2.19,1.35,3.63v5.35h5.64c1.27,0,2.33.45,3.17,1.34.85.89,1.27,2.01,1.27,3.34s-.42,2.35-1.27,3.22c-.85.86-1.9,1.29-3.17,1.29h-5.64v22.64c0,1.17.29,2.02.87,2.55.58.53,1.37.79,2.38.79.42,0,1-.11,1.75-.33.64-.28,1.24-.42,1.83-.42.74,0,1.41.38,2.02,1.13Z"/>
      <path class="cls-7" d="M729.59,92.36c-.95.83-2.06,1.25-3.33,1.25h-26.19c.64,3.29,2.09,5.86,4.37,7.73,2.28,1.87,4.84,2.8,7.7,2.8,2.17,0,3.86-.21,5.08-.63,1.22-.42,2.18-.86,2.9-1.34.71-.47,1.2-.79,1.47-.96.95-.5,1.85-.75,2.7-.75,1.11,0,2.06.42,2.86,1.25.79.84,1.19,1.81,1.19,2.92,0,1.5-.74,2.87-2.22,4.09-1.48,1.28-3.47,2.37-5.95,3.26-2.49.89-5,1.34-7.54,1.34-4.44,0-8.32-.97-11.63-2.92-3.31-1.95-5.86-4.64-7.66-8.06-1.8-3.42-2.7-7.28-2.7-11.57,0-4.79.95-9,2.86-12.61s4.42-6.39,7.54-8.31c3.12-1.92,6.45-2.88,10-2.88s6.79,1,9.88,3.01c3.1,2.01,5.57,4.71,7.42,8.1,1.85,3.4,2.78,7.07,2.78,11.03-.05,1.34-.56,2.42-1.51,3.26ZM700.15,85.26h20.79v-.58c-.21-2.34-1.3-4.34-3.25-6.02-1.96-1.67-4.18-2.51-6.67-2.51-6.14,0-9.76,3.04-10.87,9.11Z"/>
    </g>
  </g>
</svg>